<mxfile host="app.diagrams.net" modified="2020-05-20T13:01:44.312Z" agent="5.0 (Windows NT 10.0; Win64; x64) AppleWebKit/537.36 (KHTML, like Gecko) Chrome/81.0.4044.138 Safari/537.36" etag="O_UIald3LNvlWWlXYpyJ" version="13.1.3" type="github">
  <diagram id="37Js4hQtQI7ZXpH2cMoo" name="Page-1">
    <mxGraphModel dx="782" dy="469" grid="1" gridSize="10" guides="1" tooltips="1" connect="1" arrows="1" fold="1" page="1" pageScale="1" pageWidth="827" pageHeight="1169" math="0" shadow="0">
      <root>
        <mxCell id="0" />
        <mxCell id="1" parent="0" />
        <mxCell id="VJLdOgrYn-XbgZyUld-y-1" value="" style="ellipse;html=1;shape=startState;fillColor=#000000;strokeColor=#ff0000;" parent="1" vertex="1">
          <mxGeometry x="384" y="10" width="30" height="30" as="geometry" />
        </mxCell>
        <mxCell id="VJLdOgrYn-XbgZyUld-y-2" value="" style="edgeStyle=orthogonalEdgeStyle;html=1;verticalAlign=bottom;endArrow=open;endSize=8;strokeColor=#ff0000;" parent="1" source="VJLdOgrYn-XbgZyUld-y-1" edge="1">
          <mxGeometry relative="1" as="geometry">
            <mxPoint x="399" y="100" as="targetPoint" />
          </mxGeometry>
        </mxCell>
        <mxCell id="VJLdOgrYn-XbgZyUld-y-3" value="Go to Dashboard/ Booking Calendar" style="rounded=1;whiteSpace=wrap;html=1;arcSize=40;fontColor=#000000;fillColor=#ffffc0;strokeColor=#ff0000;" parent="1" vertex="1">
          <mxGeometry x="339" y="100" width="120" height="40" as="geometry" />
        </mxCell>
        <mxCell id="VJLdOgrYn-XbgZyUld-y-4" value="" style="edgeStyle=orthogonalEdgeStyle;html=1;verticalAlign=bottom;endArrow=open;endSize=8;strokeColor=#ff0000;" parent="1" source="VJLdOgrYn-XbgZyUld-y-3" edge="1">
          <mxGeometry relative="1" as="geometry">
            <mxPoint x="399" y="200" as="targetPoint" />
          </mxGeometry>
        </mxCell>
        <mxCell id="VJLdOgrYn-XbgZyUld-y-5" value="Choose a Pending Appointment" style="rounded=1;whiteSpace=wrap;html=1;arcSize=40;fontColor=#000000;fillColor=#ffffc0;strokeColor=#ff0000;" parent="1" vertex="1">
          <mxGeometry x="339" y="200" width="120" height="40" as="geometry" />
        </mxCell>
        <mxCell id="VJLdOgrYn-XbgZyUld-y-6" value="" style="edgeStyle=orthogonalEdgeStyle;html=1;verticalAlign=bottom;endArrow=open;endSize=8;strokeColor=#ff0000;" parent="1" source="VJLdOgrYn-XbgZyUld-y-5" edge="1">
          <mxGeometry relative="1" as="geometry">
            <mxPoint x="399" y="300" as="targetPoint" />
          </mxGeometry>
        </mxCell>
        <mxCell id="VJLdOgrYn-XbgZyUld-y-7" value="" style="rhombus;whiteSpace=wrap;html=1;fillColor=#ffffc0;strokeColor=#ff0000;" parent="1" vertex="1">
          <mxGeometry x="360" y="300" width="80" height="40" as="geometry" />
        </mxCell>
        <mxCell id="VJLdOgrYn-XbgZyUld-y-8" value="" style="edgeStyle=orthogonalEdgeStyle;html=1;align=left;verticalAlign=bottom;endArrow=open;endSize=8;strokeColor=#ff0000;" parent="1" source="VJLdOgrYn-XbgZyUld-y-7" edge="1">
          <mxGeometry x="-1" relative="1" as="geometry">
            <mxPoint x="540" y="320" as="targetPoint" />
          </mxGeometry>
        </mxCell>
        <mxCell id="VJLdOgrYn-XbgZyUld-y-9" value="" style="edgeStyle=orthogonalEdgeStyle;html=1;align=left;verticalAlign=top;endArrow=open;endSize=8;strokeColor=#ff0000;" parent="1" source="VJLdOgrYn-XbgZyUld-y-7" edge="1">
          <mxGeometry x="-1" relative="1" as="geometry">
            <mxPoint x="400" y="400" as="targetPoint" />
          </mxGeometry>
        </mxCell>
        <mxCell id="VJLdOgrYn-XbgZyUld-y-10" value="Approve" style="text;html=1;align=center;verticalAlign=middle;resizable=0;points=[];autosize=1;" parent="1" vertex="1">
          <mxGeometry x="334" y="360" width="60" height="20" as="geometry" />
        </mxCell>
        <mxCell id="VJLdOgrYn-XbgZyUld-y-11" value="Rejcet" style="text;html=1;align=center;verticalAlign=middle;resizable=0;points=[];autosize=1;" parent="1" vertex="1">
          <mxGeometry x="445" y="293" width="50" height="20" as="geometry" />
        </mxCell>
        <mxCell id="VJLdOgrYn-XbgZyUld-y-12" value="Appointment is accepted &amp;amp; its Status changes from Pending to Accepted" style="rounded=1;whiteSpace=wrap;html=1;arcSize=40;fontColor=#000000;fillColor=#ffffc0;strokeColor=#ff0000;" parent="1" vertex="1">
          <mxGeometry x="334" y="400" width="141" height="50" as="geometry" />
        </mxCell>
        <mxCell id="VJLdOgrYn-XbgZyUld-y-13" value="" style="edgeStyle=orthogonalEdgeStyle;html=1;verticalAlign=bottom;endArrow=open;endSize=8;strokeColor=#ff0000;exitX=0.5;exitY=1;exitDx=0;exitDy=0;entryX=0.25;entryY=0;entryDx=0;entryDy=0;" parent="1" source="VJLdOgrYn-XbgZyUld-y-12" target="VJLdOgrYn-XbgZyUld-y-14" edge="1">
          <mxGeometry relative="1" as="geometry">
            <mxPoint x="470" y="547" as="targetPoint" />
            <Array as="points">
              <mxPoint x="405" y="490" />
              <mxPoint x="465" y="490" />
            </Array>
          </mxGeometry>
        </mxCell>
        <mxCell id="VJLdOgrYn-XbgZyUld-y-14" value="Client is informed for the approval or rejection of the appointment" style="rounded=1;whiteSpace=wrap;html=1;arcSize=40;fontColor=#000000;fillColor=#ffffc0;strokeColor=#ff0000;" parent="1" vertex="1">
          <mxGeometry x="430" y="650" width="140" height="50" as="geometry" />
        </mxCell>
        <mxCell id="VJLdOgrYn-XbgZyUld-y-15" value="" style="edgeStyle=orthogonalEdgeStyle;html=1;verticalAlign=bottom;endArrow=open;endSize=8;strokeColor=#ff0000;exitX=0.5;exitY=1;exitDx=0;exitDy=0;entryX=0.315;entryY=0;entryDx=0;entryDy=0;entryPerimeter=0;" parent="1" source="VJLdOgrYn-XbgZyUld-y-14" edge="1">
          <mxGeometry relative="1" as="geometry">
            <mxPoint x="690" y="750" as="targetPoint" />
          </mxGeometry>
        </mxCell>
        <mxCell id="VJLdOgrYn-XbgZyUld-y-16" value="" style="rhombus;whiteSpace=wrap;html=1;fillColor=#ffffc0;strokeColor=#ff0000;" parent="1" vertex="1">
          <mxGeometry x="540" y="300" width="80" height="40" as="geometry" />
        </mxCell>
        <mxCell id="VJLdOgrYn-XbgZyUld-y-18" value="" style="edgeStyle=orthogonalEdgeStyle;html=1;align=left;verticalAlign=top;endArrow=open;endSize=8;strokeColor=#ff0000;" parent="1" source="VJLdOgrYn-XbgZyUld-y-16" edge="1">
          <mxGeometry x="0.3333" y="260" relative="1" as="geometry">
            <mxPoint x="580" y="400" as="targetPoint" />
            <mxPoint as="offset" />
          </mxGeometry>
        </mxCell>
        <mxCell id="VJLdOgrYn-XbgZyUld-y-19" value="" style="edgeStyle=orthogonalEdgeStyle;html=1;align=left;verticalAlign=top;endArrow=open;endSize=8;strokeColor=#ff0000;exitX=1;exitY=0.5;exitDx=0;exitDy=0;" parent="1" source="VJLdOgrYn-XbgZyUld-y-16" edge="1">
          <mxGeometry x="0.3333" y="260" relative="1" as="geometry">
            <mxPoint x="710" y="320" as="targetPoint" />
            <mxPoint x="590" y="350" as="sourcePoint" />
            <mxPoint as="offset" />
          </mxGeometry>
        </mxCell>
        <mxCell id="VJLdOgrYn-XbgZyUld-y-21" value="Confirm" style="text;html=1;align=center;verticalAlign=middle;resizable=0;points=[];autosize=1;" parent="1" vertex="1">
          <mxGeometry x="520" y="360" width="60" height="20" as="geometry" />
        </mxCell>
        <mxCell id="VJLdOgrYn-XbgZyUld-y-22" value="Reschedule" style="text;html=1;align=center;verticalAlign=middle;resizable=0;points=[];autosize=1;" parent="1" vertex="1">
          <mxGeometry x="620" y="300" width="80" height="20" as="geometry" />
        </mxCell>
        <mxCell id="VJLdOgrYn-XbgZyUld-y-23" value="Appointment is Deleted form the Database" style="rounded=1;whiteSpace=wrap;html=1;arcSize=40;fontColor=#000000;fillColor=#ffffc0;strokeColor=#ff0000;" parent="1" vertex="1">
          <mxGeometry x="520" y="400" width="120" height="40" as="geometry" />
        </mxCell>
        <mxCell id="VJLdOgrYn-XbgZyUld-y-24" value="" style="edgeStyle=orthogonalEdgeStyle;html=1;verticalAlign=bottom;endArrow=open;endSize=8;strokeColor=#ff0000;exitX=0.5;exitY=1;exitDx=0;exitDy=0;entryX=0.6;entryY=0.013;entryDx=0;entryDy=0;entryPerimeter=0;" parent="1" source="VJLdOgrYn-XbgZyUld-y-23" target="VJLdOgrYn-XbgZyUld-y-14" edge="1">
          <mxGeometry relative="1" as="geometry">
            <mxPoint x="512.5999999999999" y="547.33" as="targetPoint" />
            <Array as="points">
              <mxPoint x="580" y="490" />
              <mxPoint x="514" y="490" />
              <mxPoint x="514" y="530" />
              <mxPoint x="513" y="530" />
            </Array>
          </mxGeometry>
        </mxCell>
        <mxCell id="VJLdOgrYn-XbgZyUld-y-30" value="Fill in the information for the rescheduled Appointment" style="rounded=1;whiteSpace=wrap;html=1;arcSize=40;fontColor=#000000;fillColor=#ffffc0;strokeColor=#ff0000;" parent="1" vertex="1">
          <mxGeometry x="710" y="290" width="130" height="50" as="geometry" />
        </mxCell>
        <mxCell id="VJLdOgrYn-XbgZyUld-y-31" value="" style="edgeStyle=orthogonalEdgeStyle;html=1;verticalAlign=bottom;endArrow=open;endSize=8;strokeColor=#ff0000;" parent="1" source="VJLdOgrYn-XbgZyUld-y-30" edge="1">
          <mxGeometry relative="1" as="geometry">
            <mxPoint x="775" y="460" as="targetPoint" />
          </mxGeometry>
        </mxCell>
        <mxCell id="VJLdOgrYn-XbgZyUld-y-32" value="Client is informed for the Rescheduling.&amp;nbsp;" style="rounded=1;whiteSpace=wrap;html=1;arcSize=40;fontColor=#000000;fillColor=#ffffc0;strokeColor=#ff0000;" parent="1" vertex="1">
          <mxGeometry x="715" y="440" width="120" height="40" as="geometry" />
        </mxCell>
        <mxCell id="VJLdOgrYn-XbgZyUld-y-33" value="" style="edgeStyle=orthogonalEdgeStyle;html=1;verticalAlign=bottom;endArrow=open;endSize=8;strokeColor=#ff0000;entryX=0.715;entryY=0.267;entryDx=0;entryDy=0;entryPerimeter=0;" parent="1" source="VJLdOgrYn-XbgZyUld-y-32" edge="1">
          <mxGeometry relative="1" as="geometry">
            <mxPoint x="770" y="752.6700000000001" as="targetPoint" />
            <Array as="points">
              <mxPoint x="770" y="530" />
              <mxPoint x="770" y="530" />
            </Array>
          </mxGeometry>
        </mxCell>
        <mxCell id="VJLdOgrYn-XbgZyUld-y-38" value="" style="ellipse;html=1;shape=endState;fillColor=#000000;strokeColor=#ff0000;" parent="1" vertex="1">
          <mxGeometry x="725" y="840" width="30" height="30" as="geometry" />
        </mxCell>
        <mxCell id="hG1V84DoF3PioVZd5f2r-1" value="Back to Booking Calendar" style="rounded=1;whiteSpace=wrap;html=1;arcSize=40;fontColor=#000000;fillColor=#ffffc0;strokeColor=#ff0000;" parent="1" vertex="1">
          <mxGeometry x="680" y="750" width="120" height="40" as="geometry" />
        </mxCell>
        <mxCell id="hG1V84DoF3PioVZd5f2r-2" value="" style="edgeStyle=orthogonalEdgeStyle;html=1;verticalAlign=bottom;endArrow=open;endSize=8;strokeColor=#ff0000;" parent="1" source="hG1V84DoF3PioVZd5f2r-1" edge="1">
          <mxGeometry relative="1" as="geometry">
            <mxPoint x="740" y="840" as="targetPoint" />
          </mxGeometry>
        </mxCell>
      </root>
    </mxGraphModel>
  </diagram>
</mxfile>
